<mxfile host="Electron" agent="Mozilla/5.0 (Windows NT 10.0; Win64; x64) AppleWebKit/537.36 (KHTML, like Gecko) draw.io/26.0.16 Chrome/132.0.6834.196 Electron/34.2.0 Safari/537.36" version="26.0.16" pages="2">
  <diagram name="Smart Contract" id="vvVTa_jECMtxa1CNbDpv">
    <mxGraphModel dx="1666" dy="962" grid="1" gridSize="10" guides="1" tooltips="1" connect="1" arrows="1" fold="1" page="1" pageScale="1" pageWidth="1169" pageHeight="827" math="0" shadow="0">
      <root>
        <mxCell id="0" />
        <mxCell id="1" parent="0" />
        <mxCell id="_qUg9HCl38SOe6tDdpgH-21" style="edgeStyle=orthogonalEdgeStyle;rounded=0;orthogonalLoop=1;jettySize=auto;html=1;entryX=0.5;entryY=0;entryDx=0;entryDy=0;exitX=0.5;exitY=1;exitDx=0;exitDy=0;" parent="1" source="_qUg9HCl38SOe6tDdpgH-1" target="_qUg9HCl38SOe6tDdpgH-12" edge="1">
          <mxGeometry relative="1" as="geometry" />
        </mxCell>
        <mxCell id="_qUg9HCl38SOe6tDdpgH-22" value="place digital signature" style="edgeLabel;html=1;align=center;verticalAlign=middle;resizable=0;points=[];" parent="_qUg9HCl38SOe6tDdpgH-21" vertex="1" connectable="0">
          <mxGeometry x="-0.2462" y="1" relative="1" as="geometry">
            <mxPoint x="-1" y="13" as="offset" />
          </mxGeometry>
        </mxCell>
        <mxCell id="_qUg9HCl38SOe6tDdpgH-24" value="Local Hub Employee" style="edgeLabel;html=1;align=center;verticalAlign=middle;resizable=0;points=[];" parent="_qUg9HCl38SOe6tDdpgH-21" vertex="1" connectable="0">
          <mxGeometry x="-0.8444" relative="1" as="geometry">
            <mxPoint x="-60" y="4" as="offset" />
          </mxGeometry>
        </mxCell>
        <mxCell id="_qUg9HCl38SOe6tDdpgH-1" value="Local Hub" style="rounded=1;whiteSpace=wrap;html=1;" parent="1" vertex="1">
          <mxGeometry x="255" y="135" width="120" height="60" as="geometry" />
        </mxCell>
        <mxCell id="_qUg9HCl38SOe6tDdpgH-49" style="edgeStyle=orthogonalEdgeStyle;rounded=0;orthogonalLoop=1;jettySize=auto;html=1;exitX=0.5;exitY=0;exitDx=0;exitDy=0;entryX=1;entryY=0.5;entryDx=0;entryDy=0;" parent="1" source="_qUg9HCl38SOe6tDdpgH-2" target="_qUg9HCl38SOe6tDdpgH-48" edge="1">
          <mxGeometry relative="1" as="geometry" />
        </mxCell>
        <mxCell id="_qUg9HCl38SOe6tDdpgH-50" value="place digital signature" style="edgeLabel;html=1;align=center;verticalAlign=middle;resizable=0;points=[];" parent="_qUg9HCl38SOe6tDdpgH-49" vertex="1" connectable="0">
          <mxGeometry x="-0.1453" y="1" relative="1" as="geometry">
            <mxPoint as="offset" />
          </mxGeometry>
        </mxCell>
        <mxCell id="_qUg9HCl38SOe6tDdpgH-59" style="edgeStyle=orthogonalEdgeStyle;rounded=0;orthogonalLoop=1;jettySize=auto;html=1;exitX=0.5;exitY=1;exitDx=0;exitDy=0;" parent="1" source="_qUg9HCl38SOe6tDdpgH-2" target="_qUg9HCl38SOe6tDdpgH-58" edge="1">
          <mxGeometry relative="1" as="geometry" />
        </mxCell>
        <mxCell id="_qUg9HCl38SOe6tDdpgH-60" value="place digital signature" style="edgeLabel;html=1;align=center;verticalAlign=middle;resizable=0;points=[];" parent="_qUg9HCl38SOe6tDdpgH-59" vertex="1" connectable="0">
          <mxGeometry x="0.0365" y="2" relative="1" as="geometry">
            <mxPoint as="offset" />
          </mxGeometry>
        </mxCell>
        <mxCell id="_qUg9HCl38SOe6tDdpgH-2" value="Local Hub" style="rounded=1;whiteSpace=wrap;html=1;" parent="1" vertex="1">
          <mxGeometry x="795" y="134" width="120" height="60" as="geometry" />
        </mxCell>
        <mxCell id="_qUg9HCl38SOe6tDdpgH-34" style="edgeStyle=orthogonalEdgeStyle;rounded=0;orthogonalLoop=1;jettySize=auto;html=1;exitX=0.5;exitY=0;exitDx=0;exitDy=0;entryX=1;entryY=0.5;entryDx=0;entryDy=0;" parent="1" source="_qUg9HCl38SOe6tDdpgH-3" target="_qUg9HCl38SOe6tDdpgH-25" edge="1">
          <mxGeometry relative="1" as="geometry" />
        </mxCell>
        <mxCell id="_qUg9HCl38SOe6tDdpgH-36" value="place digital signature" style="edgeLabel;html=1;align=center;verticalAlign=middle;resizable=0;points=[];" parent="_qUg9HCl38SOe6tDdpgH-34" vertex="1" connectable="0">
          <mxGeometry x="-0.4702" y="2" relative="1" as="geometry">
            <mxPoint as="offset" />
          </mxGeometry>
        </mxCell>
        <mxCell id="_qUg9HCl38SOe6tDdpgH-38" value="Hubs employee" style="edgeLabel;html=1;align=center;verticalAlign=middle;resizable=0;points=[];" parent="_qUg9HCl38SOe6tDdpgH-34" vertex="1" connectable="0">
          <mxGeometry x="-0.8451" relative="1" as="geometry">
            <mxPoint x="50" as="offset" />
          </mxGeometry>
        </mxCell>
        <mxCell id="_qUg9HCl38SOe6tDdpgH-43" style="edgeStyle=orthogonalEdgeStyle;rounded=0;orthogonalLoop=1;jettySize=auto;html=1;exitX=0.5;exitY=1;exitDx=0;exitDy=0;" parent="1" source="_qUg9HCl38SOe6tDdpgH-3" target="_qUg9HCl38SOe6tDdpgH-41" edge="1">
          <mxGeometry relative="1" as="geometry" />
        </mxCell>
        <mxCell id="_qUg9HCl38SOe6tDdpgH-44" value="place digital signature" style="edgeLabel;html=1;align=center;verticalAlign=middle;resizable=0;points=[];" parent="_qUg9HCl38SOe6tDdpgH-43" vertex="1" connectable="0">
          <mxGeometry x="0.0214" y="-1" relative="1" as="geometry">
            <mxPoint as="offset" />
          </mxGeometry>
        </mxCell>
        <mxCell id="_qUg9HCl38SOe6tDdpgH-45" value="Hubs employee" style="edgeLabel;html=1;align=center;verticalAlign=middle;resizable=0;points=[];" parent="_qUg9HCl38SOe6tDdpgH-43" vertex="1" connectable="0">
          <mxGeometry x="-0.8071" y="1" relative="1" as="geometry">
            <mxPoint x="39" as="offset" />
          </mxGeometry>
        </mxCell>
        <mxCell id="_qUg9HCl38SOe6tDdpgH-3" value="Hubs&lt;div&gt;(Regional Hub / National Hub / International Hub)&lt;/div&gt;" style="rounded=1;whiteSpace=wrap;html=1;dashed=1;dashPattern=8 8;" parent="1" vertex="1">
          <mxGeometry x="475" y="100" width="200" height="130" as="geometry" />
        </mxCell>
        <mxCell id="_qUg9HCl38SOe6tDdpgH-63" style="edgeStyle=orthogonalEdgeStyle;rounded=0;orthogonalLoop=1;jettySize=auto;html=1;exitX=0.75;exitY=0;exitDx=0;exitDy=0;entryX=1;entryY=0.5;entryDx=0;entryDy=0;" parent="1" source="_qUg9HCl38SOe6tDdpgH-4" target="_qUg9HCl38SOe6tDdpgH-62" edge="1">
          <mxGeometry relative="1" as="geometry" />
        </mxCell>
        <mxCell id="_qUg9HCl38SOe6tDdpgH-65" value="place digital signature" style="edgeLabel;html=1;align=center;verticalAlign=middle;resizable=0;points=[];" parent="_qUg9HCl38SOe6tDdpgH-63" vertex="1" connectable="0">
          <mxGeometry x="-0.2663" y="-1" relative="1" as="geometry">
            <mxPoint as="offset" />
          </mxGeometry>
        </mxCell>
        <mxCell id="_qUg9HCl38SOe6tDdpgH-4" value="Customer" style="rounded=1;whiteSpace=wrap;html=1;" parent="1" vertex="1">
          <mxGeometry x="1025" y="135" width="120" height="60" as="geometry" />
        </mxCell>
        <mxCell id="_qUg9HCl38SOe6tDdpgH-11" value="" style="shape=flexArrow;endArrow=classic;html=1;rounded=0;entryX=0.167;entryY=0.917;entryDx=0;entryDy=0;entryPerimeter=0;width=24.571428571428573;endSize=7.382857142857143;" parent="1" edge="1">
          <mxGeometry width="50" height="50" relative="1" as="geometry">
            <mxPoint x="165" y="164.5" as="sourcePoint" />
            <mxPoint x="225.03999999999996" y="164.5200000000001" as="targetPoint" />
          </mxGeometry>
        </mxCell>
        <mxCell id="_qUg9HCl38SOe6tDdpgH-33" style="edgeStyle=orthogonalEdgeStyle;rounded=0;orthogonalLoop=1;jettySize=auto;html=1;exitX=1;exitY=0.5;exitDx=0;exitDy=0;" parent="1" source="_qUg9HCl38SOe6tDdpgH-12" target="_qUg9HCl38SOe6tDdpgH-26" edge="1">
          <mxGeometry relative="1" as="geometry" />
        </mxCell>
        <mxCell id="_qUg9HCl38SOe6tDdpgH-12" value="Smart Contract" style="rounded=0;whiteSpace=wrap;html=1;fillColor=#f8cecc;strokeColor=#b85450;" parent="1" vertex="1">
          <mxGeometry x="255" y="370" width="120" height="60" as="geometry" />
        </mxCell>
        <mxCell id="_qUg9HCl38SOe6tDdpgH-19" style="edgeStyle=orthogonalEdgeStyle;rounded=0;orthogonalLoop=1;jettySize=auto;html=1;exitX=0.5;exitY=1;exitDx=0;exitDy=0;entryX=0;entryY=0.5;entryDx=0;entryDy=0;" parent="1" source="_qUg9HCl38SOe6tDdpgH-13" target="_qUg9HCl38SOe6tDdpgH-12" edge="1">
          <mxGeometry relative="1" as="geometry" />
        </mxCell>
        <mxCell id="_qUg9HCl38SOe6tDdpgH-20" value="place digital signature" style="edgeLabel;html=1;align=center;verticalAlign=middle;resizable=0;points=[];" parent="_qUg9HCl38SOe6tDdpgH-19" vertex="1" connectable="0">
          <mxGeometry x="-0.1963" relative="1" as="geometry">
            <mxPoint y="-17" as="offset" />
          </mxGeometry>
        </mxCell>
        <mxCell id="_qUg9HCl38SOe6tDdpgH-13" value="Employee" style="rounded=1;whiteSpace=wrap;html=1;" parent="1" vertex="1">
          <mxGeometry x="25" y="135" width="120" height="60" as="geometry" />
        </mxCell>
        <mxCell id="_qUg9HCl38SOe6tDdpgH-14" value="send parcel" style="text;html=1;align=center;verticalAlign=middle;resizable=0;points=[];autosize=1;strokeColor=none;fillColor=none;" parent="1" vertex="1">
          <mxGeometry x="140" y="108" width="90" height="30" as="geometry" />
        </mxCell>
        <mxCell id="_qUg9HCl38SOe6tDdpgH-16" value="" style="shape=flexArrow;endArrow=classic;html=1;rounded=0;entryX=0.167;entryY=0.917;entryDx=0;entryDy=0;entryPerimeter=0;width=24.571428571428573;endSize=7.382857142857143;" parent="1" edge="1">
          <mxGeometry width="50" height="50" relative="1" as="geometry">
            <mxPoint x="395" y="164.57999999999998" as="sourcePoint" />
            <mxPoint x="455.03999999999996" y="164.60000000000008" as="targetPoint" />
          </mxGeometry>
        </mxCell>
        <mxCell id="_qUg9HCl38SOe6tDdpgH-17" value="" style="shape=flexArrow;endArrow=classic;html=1;rounded=0;entryX=0.167;entryY=0.917;entryDx=0;entryDy=0;entryPerimeter=0;width=24.571428571428573;endSize=7.382857142857143;" parent="1" edge="1">
          <mxGeometry width="50" height="50" relative="1" as="geometry">
            <mxPoint x="705" y="164.57999999999998" as="sourcePoint" />
            <mxPoint x="765.04" y="164.60000000000008" as="targetPoint" />
          </mxGeometry>
        </mxCell>
        <mxCell id="_qUg9HCl38SOe6tDdpgH-18" value="" style="shape=flexArrow;endArrow=classic;html=1;rounded=0;entryX=0.167;entryY=0.917;entryDx=0;entryDy=0;entryPerimeter=0;width=24.571428571428573;endSize=7.382857142857143;" parent="1" edge="1">
          <mxGeometry width="50" height="50" relative="1" as="geometry">
            <mxPoint x="945" y="164.57999999999998" as="sourcePoint" />
            <mxPoint x="1005.04" y="164.60000000000008" as="targetPoint" />
          </mxGeometry>
        </mxCell>
        <mxCell id="_qUg9HCl38SOe6tDdpgH-35" style="edgeStyle=orthogonalEdgeStyle;rounded=0;orthogonalLoop=1;jettySize=auto;html=1;exitX=0.5;exitY=1;exitDx=0;exitDy=0;" parent="1" source="_qUg9HCl38SOe6tDdpgH-25" target="_qUg9HCl38SOe6tDdpgH-28" edge="1">
          <mxGeometry relative="1" as="geometry" />
        </mxCell>
        <mxCell id="_qUg9HCl38SOe6tDdpgH-25" value="Smart Contract" style="rounded=0;whiteSpace=wrap;html=1;fillColor=#fff2cc;strokeColor=#d6b656;" parent="1" vertex="1">
          <mxGeometry x="385" y="10" width="120" height="60" as="geometry" />
        </mxCell>
        <mxCell id="_qUg9HCl38SOe6tDdpgH-26" value="send" style="text;html=1;align=center;verticalAlign=middle;resizable=0;points=[];autosize=1;strokeColor=none;fillColor=none;" parent="1" vertex="1">
          <mxGeometry x="375" y="194" width="50" height="30" as="geometry" />
        </mxCell>
        <mxCell id="_qUg9HCl38SOe6tDdpgH-28" value="receive" style="text;html=1;align=center;verticalAlign=middle;resizable=0;points=[];autosize=1;strokeColor=none;fillColor=none;" parent="1" vertex="1">
          <mxGeometry x="415" y="100" width="60" height="30" as="geometry" />
        </mxCell>
        <mxCell id="_qUg9HCl38SOe6tDdpgH-39" value="send" style="text;html=1;align=center;verticalAlign=middle;resizable=0;points=[];autosize=1;strokeColor=none;fillColor=none;" parent="1" vertex="1">
          <mxGeometry x="685" y="194" width="50" height="30" as="geometry" />
        </mxCell>
        <mxCell id="_qUg9HCl38SOe6tDdpgH-40" value="receive" style="text;html=1;align=center;verticalAlign=middle;resizable=0;points=[];autosize=1;strokeColor=none;fillColor=none;" parent="1" vertex="1">
          <mxGeometry x="745" y="108" width="60" height="30" as="geometry" />
        </mxCell>
        <mxCell id="_qUg9HCl38SOe6tDdpgH-42" style="edgeStyle=orthogonalEdgeStyle;rounded=0;orthogonalLoop=1;jettySize=auto;html=1;exitX=1;exitY=0.5;exitDx=0;exitDy=0;" parent="1" source="_qUg9HCl38SOe6tDdpgH-41" target="_qUg9HCl38SOe6tDdpgH-39" edge="1">
          <mxGeometry relative="1" as="geometry" />
        </mxCell>
        <mxCell id="_qUg9HCl38SOe6tDdpgH-41" value="Smart Contract" style="rounded=0;whiteSpace=wrap;html=1;fillColor=#ffe6cc;strokeColor=#d79b00;" parent="1" vertex="1">
          <mxGeometry x="515" y="350" width="120" height="60" as="geometry" />
        </mxCell>
        <mxCell id="_qUg9HCl38SOe6tDdpgH-48" value="Smart Contract" style="rounded=0;whiteSpace=wrap;html=1;fillColor=#fff2cc;strokeColor=#d6b656;" parent="1" vertex="1">
          <mxGeometry x="715" y="20" width="120" height="60" as="geometry" />
        </mxCell>
        <mxCell id="_qUg9HCl38SOe6tDdpgH-51" value="Local hub employee" style="edgeLabel;html=1;align=center;verticalAlign=middle;resizable=0;points=[];" parent="1" vertex="1" connectable="0">
          <mxGeometry x="925" y="115.00428571428569" as="geometry" />
        </mxCell>
        <mxCell id="_qUg9HCl38SOe6tDdpgH-52" style="edgeStyle=orthogonalEdgeStyle;rounded=0;orthogonalLoop=1;jettySize=auto;html=1;exitX=0.5;exitY=1;exitDx=0;exitDy=0;entryX=0.503;entryY=0.111;entryDx=0;entryDy=0;entryPerimeter=0;" parent="1" source="_qUg9HCl38SOe6tDdpgH-48" target="_qUg9HCl38SOe6tDdpgH-40" edge="1">
          <mxGeometry relative="1" as="geometry" />
        </mxCell>
        <mxCell id="_qUg9HCl38SOe6tDdpgH-53" value="send" style="text;html=1;align=center;verticalAlign=middle;resizable=0;points=[];autosize=1;strokeColor=none;fillColor=none;" parent="1" vertex="1">
          <mxGeometry x="915" y="190" width="50" height="30" as="geometry" />
        </mxCell>
        <mxCell id="_qUg9HCl38SOe6tDdpgH-54" value="receive" style="text;html=1;align=center;verticalAlign=middle;resizable=0;points=[];autosize=1;strokeColor=none;fillColor=none;" parent="1" vertex="1">
          <mxGeometry x="975" y="108" width="60" height="30" as="geometry" />
        </mxCell>
        <mxCell id="_qUg9HCl38SOe6tDdpgH-57" value="Local hub&lt;div&gt;employee&lt;/div&gt;" style="edgeLabel;html=1;align=center;verticalAlign=middle;resizable=0;points=[];" parent="1" vertex="1" connectable="0">
          <mxGeometry x="885" y="209.0041379310344" as="geometry">
            <mxPoint x="6" y="4" as="offset" />
          </mxGeometry>
        </mxCell>
        <mxCell id="_qUg9HCl38SOe6tDdpgH-61" style="edgeStyle=orthogonalEdgeStyle;rounded=0;orthogonalLoop=1;jettySize=auto;html=1;exitX=1;exitY=0.5;exitDx=0;exitDy=0;" parent="1" source="_qUg9HCl38SOe6tDdpgH-58" target="_qUg9HCl38SOe6tDdpgH-53" edge="1">
          <mxGeometry relative="1" as="geometry" />
        </mxCell>
        <mxCell id="_qUg9HCl38SOe6tDdpgH-58" value="Smart Contract" style="rounded=0;whiteSpace=wrap;html=1;fillColor=#ffe6cc;strokeColor=#d79b00;" parent="1" vertex="1">
          <mxGeometry x="795" y="330" width="120" height="60" as="geometry" />
        </mxCell>
        <mxCell id="_qUg9HCl38SOe6tDdpgH-64" style="edgeStyle=orthogonalEdgeStyle;rounded=0;orthogonalLoop=1;jettySize=auto;html=1;exitX=0.5;exitY=1;exitDx=0;exitDy=0;" parent="1" source="_qUg9HCl38SOe6tDdpgH-62" target="_qUg9HCl38SOe6tDdpgH-54" edge="1">
          <mxGeometry relative="1" as="geometry" />
        </mxCell>
        <mxCell id="_qUg9HCl38SOe6tDdpgH-62" value="Smart Contract" style="rounded=0;whiteSpace=wrap;html=1;fillColor=#d5e8d4;strokeColor=#82b366;" parent="1" vertex="1">
          <mxGeometry x="945" y="10" width="120" height="60" as="geometry" />
        </mxCell>
        <mxCell id="_qUg9HCl38SOe6tDdpgH-66" value="" style="rounded=0;whiteSpace=wrap;html=1;fillColor=#f8cecc;strokeColor=#b85450;" parent="1" vertex="1">
          <mxGeometry x="65" y="500" width="80" height="40" as="geometry" />
        </mxCell>
        <mxCell id="_qUg9HCl38SOe6tDdpgH-67" value="" style="rounded=0;whiteSpace=wrap;html=1;fillColor=#ffe6cc;strokeColor=#d79b00;" parent="1" vertex="1">
          <mxGeometry x="265" y="500" width="80" height="40" as="geometry" />
        </mxCell>
        <mxCell id="_qUg9HCl38SOe6tDdpgH-68" value="" style="rounded=0;whiteSpace=wrap;html=1;fillColor=#fff2cc;strokeColor=#d6b656;" parent="1" vertex="1">
          <mxGeometry x="465" y="500" width="80" height="40" as="geometry" />
        </mxCell>
        <mxCell id="_qUg9HCl38SOe6tDdpgH-69" value="" style="rounded=0;whiteSpace=wrap;html=1;fillColor=#d5e8d4;strokeColor=#82b366;" parent="1" vertex="1">
          <mxGeometry x="665" y="500" width="80" height="40" as="geometry" />
        </mxCell>
        <mxCell id="_qUg9HCl38SOe6tDdpgH-71" value="To create tracking number" style="text;html=1;align=left;verticalAlign=middle;whiteSpace=wrap;rounded=0;fontStyle=1" parent="1" vertex="1">
          <mxGeometry x="65" y="550" width="200" height="30" as="geometry" />
        </mxCell>
        <mxCell id="_qUg9HCl38SOe6tDdpgH-72" value="To send parcel (parcel hub)" style="text;html=1;align=left;verticalAlign=middle;whiteSpace=wrap;rounded=0;fontStyle=1" parent="1" vertex="1">
          <mxGeometry x="265" y="550" width="200" height="30" as="geometry" />
        </mxCell>
        <mxCell id="_qUg9HCl38SOe6tDdpgH-73" value="To receive parcel (parcel hub)" style="text;html=1;align=left;verticalAlign=middle;whiteSpace=wrap;rounded=0;fontStyle=1" parent="1" vertex="1">
          <mxGeometry x="465" y="550" width="200" height="30" as="geometry" />
        </mxCell>
        <mxCell id="_qUg9HCl38SOe6tDdpgH-74" value="To confirm delivery" style="text;html=1;align=left;verticalAlign=middle;whiteSpace=wrap;rounded=0;fontStyle=1" parent="1" vertex="1">
          <mxGeometry x="665" y="550" width="200" height="30" as="geometry" />
        </mxCell>
        <mxCell id="_qUg9HCl38SOe6tDdpgH-76" value="&lt;b&gt;Tracking Number&lt;/b&gt;&lt;div&gt;&lt;div&gt;Product Information&lt;/div&gt;&lt;div&gt;Parcel Weight&lt;/div&gt;&lt;div&gt;Dimensions&lt;/div&gt;&lt;div&gt;Estimated monetary value&lt;/div&gt;&lt;div&gt;Comment&lt;/div&gt;&lt;div&gt;Customer Name&lt;/div&gt;&lt;div&gt;Final Destination&lt;/div&gt;&lt;div&gt;&lt;br&gt;&lt;/div&gt;&lt;div&gt;&lt;b&gt;Dispatch Time&lt;/b&gt;&lt;/div&gt;&lt;div&gt;&lt;b&gt;Local Hub ID&lt;/b&gt;&lt;/div&gt;&lt;div&gt;&lt;b&gt;&lt;br&gt;&lt;/b&gt;&lt;/div&gt;&lt;div&gt;&lt;b&gt;Sender ID&lt;/b&gt;&lt;/div&gt;&lt;div&gt;&lt;b style=&quot;background-color: transparent; color: light-dark(rgb(0, 0, 0), rgb(255, 255, 255));&quot;&gt;Sender Digital Signature&lt;/b&gt;&lt;/div&gt;&lt;/div&gt;&lt;div&gt;&lt;b style=&quot;background-color: transparent; color: light-dark(rgb(0, 0, 0), rgb(255, 255, 255));&quot;&gt;&lt;br&gt;&lt;/b&gt;&lt;/div&gt;&lt;div&gt;&lt;div&gt;&lt;span style=&quot;background-color: transparent; color: light-dark(rgb(0, 0, 0), rgb(255, 255, 255));&quot;&gt;&lt;b&gt;Employee ID&lt;/b&gt;&lt;/span&gt;&lt;/div&gt;&lt;/div&gt;&lt;div&gt;&lt;b&gt;Employee Digital Signature&lt;/b&gt;&lt;/div&gt;" style="text;html=1;align=left;verticalAlign=top;resizable=0;points=[];autosize=1;strokeColor=none;fillColor=none;" parent="1" vertex="1">
          <mxGeometry x="65" y="580" width="180" height="260" as="geometry" />
        </mxCell>
        <mxCell id="_qUg9HCl38SOe6tDdpgH-77" value="&lt;b&gt;Tracking Number&lt;/b&gt;&lt;div&gt;Parcel Photo&lt;/div&gt;&lt;div&gt;&lt;br&gt;&lt;div&gt;&lt;b style=&quot;background-color: transparent; color: light-dark(rgb(0, 0, 0), rgb(255, 255, 255));&quot;&gt;Out for Delivery Time&lt;/b&gt;&lt;/div&gt;&lt;div&gt;&lt;b&gt;Parcel Hub ID (Sender)&lt;/b&gt;&lt;/div&gt;&lt;div&gt;&lt;b&gt;&lt;br&gt;&lt;/b&gt;&lt;div&gt;&lt;div&gt;&lt;span style=&quot;background-color: transparent; color: light-dark(rgb(0, 0, 0), rgb(255, 255, 255));&quot;&gt;&lt;b&gt;Employee ID&lt;/b&gt;&lt;/span&gt;&lt;/div&gt;&lt;/div&gt;&lt;div&gt;&lt;b&gt;Employee Digital Signature&lt;/b&gt;&lt;/div&gt;&lt;/div&gt;&lt;/div&gt;" style="text;html=1;align=left;verticalAlign=top;resizable=0;points=[];autosize=1;strokeColor=none;fillColor=none;" parent="1" vertex="1">
          <mxGeometry x="265" y="580" width="180" height="130" as="geometry" />
        </mxCell>
        <mxCell id="_qUg9HCl38SOe6tDdpgH-78" value="&lt;b&gt;Tracking Number&lt;/b&gt;&lt;div&gt;Parcel Photo&lt;/div&gt;&lt;div&gt;&lt;br&gt;&lt;div&gt;&lt;b style=&quot;background-color: transparent; color: light-dark(rgb(0, 0, 0), rgb(255, 255, 255));&quot;&gt;Received Time&lt;/b&gt;&lt;/div&gt;&lt;div&gt;&lt;b&gt;Parcel Hub ID (Receiver)&lt;/b&gt;&lt;/div&gt;&lt;div&gt;&lt;b&gt;&lt;br&gt;&lt;/b&gt;&lt;div&gt;&lt;div&gt;&lt;span style=&quot;background-color: transparent; color: light-dark(rgb(0, 0, 0), rgb(255, 255, 255));&quot;&gt;&lt;b&gt;Employee ID&lt;/b&gt;&lt;/span&gt;&lt;/div&gt;&lt;/div&gt;&lt;div&gt;&lt;b&gt;Employee Digital Signature&lt;/b&gt;&lt;/div&gt;&lt;/div&gt;&lt;/div&gt;" style="text;html=1;align=left;verticalAlign=top;resizable=0;points=[];autosize=1;strokeColor=none;fillColor=none;" parent="1" vertex="1">
          <mxGeometry x="465" y="580" width="180" height="130" as="geometry" />
        </mxCell>
        <mxCell id="_qUg9HCl38SOe6tDdpgH-79" value="&lt;b&gt;Tracking Number&lt;/b&gt;&lt;div&gt;Parcel Photo&lt;br&gt;&lt;div&gt;&lt;b style=&quot;background-color: transparent; color: light-dark(rgb(0, 0, 0), rgb(255, 255, 255));&quot;&gt;&lt;br&gt;&lt;/b&gt;&lt;/div&gt;&lt;div&gt;&lt;b style=&quot;background-color: transparent; color: light-dark(rgb(0, 0, 0), rgb(255, 255, 255));&quot;&gt;Received Time&lt;/b&gt;&lt;/div&gt;&lt;div&gt;&lt;b style=&quot;background-color: transparent; color: light-dark(rgb(0, 0, 0), rgb(255, 255, 255));&quot;&gt;&lt;br&gt;&lt;/b&gt;&lt;/div&gt;&lt;div&gt;&lt;div&gt;&lt;div&gt;&lt;span style=&quot;background-color: transparent; color: light-dark(rgb(0, 0, 0), rgb(255, 255, 255));&quot;&gt;&lt;b&gt;Customer ID&lt;/b&gt;&lt;/span&gt;&lt;/div&gt;&lt;/div&gt;&lt;div&gt;&lt;b&gt;Customer Digital Signature&lt;/b&gt;&lt;/div&gt;&lt;/div&gt;&lt;/div&gt;" style="text;html=1;align=left;verticalAlign=top;resizable=0;points=[];autosize=1;strokeColor=none;fillColor=none;" parent="1" vertex="1">
          <mxGeometry x="665" y="580" width="180" height="110" as="geometry" />
        </mxCell>
        <mxCell id="_qUg9HCl38SOe6tDdpgH-81" value="&lt;b style=&quot;&quot;&gt;Parcel Hub ID&lt;/b&gt;&lt;div style=&quot;&quot;&gt;Parcel Hub Address&lt;/div&gt;&lt;div style=&quot;&quot;&gt;Parcel Hub Operating Level&lt;/div&gt;" style="rounded=0;whiteSpace=wrap;html=1;align=left;spacingTop=0;spacingLeft=30;" parent="1" vertex="1">
          <mxGeometry x="915" y="540" width="216" height="90" as="geometry" />
        </mxCell>
      </root>
    </mxGraphModel>
  </diagram>
  <diagram id="W_vSAaPXFv82lXElinUw" name="Flow">
    <mxGraphModel dx="1888" dy="1091" grid="1" gridSize="10" guides="1" tooltips="1" connect="1" arrows="1" fold="1" page="1" pageScale="1" pageWidth="1169" pageHeight="827" math="0" shadow="0">
      <root>
        <mxCell id="0" />
        <mxCell id="1" parent="0" />
        <mxCell id="nsdxGzsHSq47ZVcV8mhm-3" style="edgeStyle=orthogonalEdgeStyle;rounded=0;orthogonalLoop=1;jettySize=auto;html=1;exitX=0.5;exitY=1;exitDx=0;exitDy=0;endArrow=none;startFill=0;" edge="1" parent="1" source="nsdxGzsHSq47ZVcV8mhm-1">
          <mxGeometry relative="1" as="geometry">
            <mxPoint x="595" y="70" as="targetPoint" />
          </mxGeometry>
        </mxCell>
        <mxCell id="nsdxGzsHSq47ZVcV8mhm-1" value="Login" style="text;html=1;align=center;verticalAlign=middle;whiteSpace=wrap;rounded=0;" vertex="1" parent="1">
          <mxGeometry x="565" y="20" width="60" height="30" as="geometry" />
        </mxCell>
        <mxCell id="nsdxGzsHSq47ZVcV8mhm-2" value="" style="endArrow=none;html=1;rounded=0;" edge="1" parent="1">
          <mxGeometry width="50" height="50" relative="1" as="geometry">
            <mxPoint x="290" y="70" as="sourcePoint" />
            <mxPoint x="910" y="70" as="targetPoint" />
          </mxGeometry>
        </mxCell>
        <mxCell id="nsdxGzsHSq47ZVcV8mhm-16" style="edgeStyle=orthogonalEdgeStyle;rounded=0;orthogonalLoop=1;jettySize=auto;html=1;exitX=0.5;exitY=1;exitDx=0;exitDy=0;entryX=0.5;entryY=0;entryDx=0;entryDy=0;" edge="1" parent="1" source="nsdxGzsHSq47ZVcV8mhm-5" target="nsdxGzsHSq47ZVcV8mhm-13">
          <mxGeometry relative="1" as="geometry" />
        </mxCell>
        <mxCell id="nsdxGzsHSq47ZVcV8mhm-5" value="Local hub" style="text;html=1;align=center;verticalAlign=middle;whiteSpace=wrap;rounded=0;" vertex="1" parent="1">
          <mxGeometry x="505" y="110" width="60" height="30" as="geometry" />
        </mxCell>
        <mxCell id="nsdxGzsHSq47ZVcV8mhm-9" style="edgeStyle=orthogonalEdgeStyle;rounded=0;orthogonalLoop=1;jettySize=auto;html=1;exitX=0.5;exitY=0;exitDx=0;exitDy=0;endArrow=none;startFill=1;startArrow=classic;" edge="1" parent="1">
          <mxGeometry relative="1" as="geometry">
            <mxPoint x="290" y="70" as="targetPoint" />
            <mxPoint x="290" y="110" as="sourcePoint" />
          </mxGeometry>
        </mxCell>
        <mxCell id="nsdxGzsHSq47ZVcV8mhm-24" style="edgeStyle=orthogonalEdgeStyle;rounded=0;orthogonalLoop=1;jettySize=auto;html=1;exitX=0.5;exitY=1;exitDx=0;exitDy=0;" edge="1" parent="1" source="nsdxGzsHSq47ZVcV8mhm-6" target="nsdxGzsHSq47ZVcV8mhm-19">
          <mxGeometry relative="1" as="geometry" />
        </mxCell>
        <mxCell id="nsdxGzsHSq47ZVcV8mhm-6" value="Seller" style="text;html=1;align=center;verticalAlign=middle;whiteSpace=wrap;rounded=0;" vertex="1" parent="1">
          <mxGeometry x="260" y="110" width="60" height="30" as="geometry" />
        </mxCell>
        <mxCell id="nsdxGzsHSq47ZVcV8mhm-36" style="edgeStyle=orthogonalEdgeStyle;rounded=0;orthogonalLoop=1;jettySize=auto;html=1;exitX=0.5;exitY=1;exitDx=0;exitDy=0;entryX=0.5;entryY=0;entryDx=0;entryDy=0;" edge="1" parent="1" source="nsdxGzsHSq47ZVcV8mhm-7" target="nsdxGzsHSq47ZVcV8mhm-35">
          <mxGeometry relative="1" as="geometry" />
        </mxCell>
        <mxCell id="nsdxGzsHSq47ZVcV8mhm-7" value="Other Hubs" style="text;html=1;align=center;verticalAlign=middle;whiteSpace=wrap;rounded=0;" vertex="1" parent="1">
          <mxGeometry x="670" y="110" width="110" height="30" as="geometry" />
        </mxCell>
        <mxCell id="nsdxGzsHSq47ZVcV8mhm-71" style="edgeStyle=orthogonalEdgeStyle;rounded=0;orthogonalLoop=1;jettySize=auto;html=1;exitX=0.5;exitY=1;exitDx=0;exitDy=0;entryX=0.5;entryY=0;entryDx=0;entryDy=0;" edge="1" parent="1" source="nsdxGzsHSq47ZVcV8mhm-8" target="nsdxGzsHSq47ZVcV8mhm-69">
          <mxGeometry relative="1" as="geometry" />
        </mxCell>
        <mxCell id="nsdxGzsHSq47ZVcV8mhm-8" value="Customer" style="text;html=1;align=center;verticalAlign=middle;whiteSpace=wrap;rounded=0;" vertex="1" parent="1">
          <mxGeometry x="860" y="110" width="110" height="30" as="geometry" />
        </mxCell>
        <mxCell id="nsdxGzsHSq47ZVcV8mhm-10" style="edgeStyle=orthogonalEdgeStyle;rounded=0;orthogonalLoop=1;jettySize=auto;html=1;exitX=0.5;exitY=0;exitDx=0;exitDy=0;endArrow=none;startFill=1;startArrow=classic;" edge="1" parent="1">
          <mxGeometry relative="1" as="geometry">
            <mxPoint x="534.75" y="70" as="targetPoint" />
            <mxPoint x="534.75" y="110" as="sourcePoint" />
          </mxGeometry>
        </mxCell>
        <mxCell id="nsdxGzsHSq47ZVcV8mhm-11" style="edgeStyle=orthogonalEdgeStyle;rounded=0;orthogonalLoop=1;jettySize=auto;html=1;exitX=0.5;exitY=0;exitDx=0;exitDy=0;endArrow=none;startFill=1;startArrow=classic;" edge="1" parent="1">
          <mxGeometry relative="1" as="geometry">
            <mxPoint x="720" y="70" as="targetPoint" />
            <mxPoint x="720" y="110" as="sourcePoint" />
          </mxGeometry>
        </mxCell>
        <mxCell id="nsdxGzsHSq47ZVcV8mhm-12" style="edgeStyle=orthogonalEdgeStyle;rounded=0;orthogonalLoop=1;jettySize=auto;html=1;exitX=0.5;exitY=0;exitDx=0;exitDy=0;endArrow=none;startFill=1;startArrow=classic;" edge="1" parent="1">
          <mxGeometry relative="1" as="geometry">
            <mxPoint x="910" y="70" as="targetPoint" />
            <mxPoint x="910" y="110" as="sourcePoint" />
          </mxGeometry>
        </mxCell>
        <mxCell id="nsdxGzsHSq47ZVcV8mhm-17" style="edgeStyle=orthogonalEdgeStyle;rounded=0;orthogonalLoop=1;jettySize=auto;html=1;exitX=0.5;exitY=1;exitDx=0;exitDy=0;entryX=0.5;entryY=0;entryDx=0;entryDy=0;" edge="1" parent="1" source="nsdxGzsHSq47ZVcV8mhm-13" target="nsdxGzsHSq47ZVcV8mhm-14">
          <mxGeometry relative="1" as="geometry" />
        </mxCell>
        <mxCell id="nsdxGzsHSq47ZVcV8mhm-13" value="Create new delivery&lt;div&gt;(upload photo etc.)&lt;/div&gt;" style="rounded=0;whiteSpace=wrap;html=1;fillColor=#f8cecc;strokeColor=#b85450;" vertex="1" parent="1">
          <mxGeometry x="435" y="160" width="200" height="40" as="geometry" />
        </mxCell>
        <mxCell id="nsdxGzsHSq47ZVcV8mhm-18" style="edgeStyle=orthogonalEdgeStyle;rounded=0;orthogonalLoop=1;jettySize=auto;html=1;exitX=0.5;exitY=1;exitDx=0;exitDy=0;entryX=0.5;entryY=0;entryDx=0;entryDy=0;" edge="1" parent="1" source="nsdxGzsHSq47ZVcV8mhm-14" target="nsdxGzsHSq47ZVcV8mhm-15">
          <mxGeometry relative="1" as="geometry" />
        </mxCell>
        <mxCell id="nsdxGzsHSq47ZVcV8mhm-14" value="Preview delivery details" style="rounded=0;whiteSpace=wrap;html=1;fillColor=#f8cecc;strokeColor=#b85450;" vertex="1" parent="1">
          <mxGeometry x="435" y="230" width="200" height="40" as="geometry" />
        </mxCell>
        <mxCell id="nsdxGzsHSq47ZVcV8mhm-20" style="edgeStyle=orthogonalEdgeStyle;rounded=0;orthogonalLoop=1;jettySize=auto;html=1;exitX=0.5;exitY=1;exitDx=0;exitDy=0;entryX=0.75;entryY=0;entryDx=0;entryDy=0;dashed=1;" edge="1" parent="1" source="nsdxGzsHSq47ZVcV8mhm-15" target="nsdxGzsHSq47ZVcV8mhm-19">
          <mxGeometry relative="1" as="geometry" />
        </mxCell>
        <mxCell id="nsdxGzsHSq47ZVcV8mhm-21" value="send website link (email etc.)" style="edgeLabel;html=1;align=center;verticalAlign=middle;resizable=0;points=[];" vertex="1" connectable="0" parent="nsdxGzsHSq47ZVcV8mhm-20">
          <mxGeometry x="0.1051" y="-2" relative="1" as="geometry">
            <mxPoint x="4" y="-8" as="offset" />
          </mxGeometry>
        </mxCell>
        <mxCell id="nsdxGzsHSq47ZVcV8mhm-15" value="Verify delivery details&lt;div&gt;(Digital Signature)&lt;/div&gt;" style="rounded=0;whiteSpace=wrap;html=1;fillColor=#f8cecc;strokeColor=#b85450;" vertex="1" parent="1">
          <mxGeometry x="435" y="300" width="200" height="50" as="geometry" />
        </mxCell>
        <mxCell id="nsdxGzsHSq47ZVcV8mhm-23" style="edgeStyle=orthogonalEdgeStyle;rounded=0;orthogonalLoop=1;jettySize=auto;html=1;exitX=0.5;exitY=1;exitDx=0;exitDy=0;entryX=0.5;entryY=0;entryDx=0;entryDy=0;" edge="1" parent="1" source="nsdxGzsHSq47ZVcV8mhm-19" target="nsdxGzsHSq47ZVcV8mhm-22">
          <mxGeometry relative="1" as="geometry" />
        </mxCell>
        <mxCell id="nsdxGzsHSq47ZVcV8mhm-19" value="Preview delivery details" style="rounded=0;whiteSpace=wrap;html=1;fillColor=#f8cecc;strokeColor=#b85450;" vertex="1" parent="1">
          <mxGeometry x="190" y="410" width="200" height="50" as="geometry" />
        </mxCell>
        <mxCell id="nsdxGzsHSq47ZVcV8mhm-26" style="edgeStyle=orthogonalEdgeStyle;rounded=0;orthogonalLoop=1;jettySize=auto;html=1;exitX=0.5;exitY=1;exitDx=0;exitDy=0;" edge="1" parent="1" source="nsdxGzsHSq47ZVcV8mhm-22" target="nsdxGzsHSq47ZVcV8mhm-25">
          <mxGeometry relative="1" as="geometry" />
        </mxCell>
        <mxCell id="nsdxGzsHSq47ZVcV8mhm-22" value="Verify delivery details&lt;div&gt;(Digital Signature)&lt;/div&gt;" style="rounded=0;whiteSpace=wrap;html=1;fillColor=#f8cecc;strokeColor=#b85450;" vertex="1" parent="1">
          <mxGeometry x="190" y="510" width="200" height="50" as="geometry" />
        </mxCell>
        <mxCell id="nsdxGzsHSq47ZVcV8mhm-28" style="edgeStyle=orthogonalEdgeStyle;rounded=0;orthogonalLoop=1;jettySize=auto;html=1;exitX=0.5;exitY=1;exitDx=0;exitDy=0;entryX=0.5;entryY=0;entryDx=0;entryDy=0;dashed=1;" edge="1" parent="1" source="nsdxGzsHSq47ZVcV8mhm-25" target="nsdxGzsHSq47ZVcV8mhm-27">
          <mxGeometry relative="1" as="geometry" />
        </mxCell>
        <mxCell id="nsdxGzsHSq47ZVcV8mhm-25" value="Store delivery details into db" style="rounded=0;whiteSpace=wrap;html=1;fillColor=#f8cecc;strokeColor=#b85450;" vertex="1" parent="1">
          <mxGeometry x="435" y="620" width="200" height="50" as="geometry" />
        </mxCell>
        <mxCell id="nsdxGzsHSq47ZVcV8mhm-32" style="edgeStyle=orthogonalEdgeStyle;rounded=0;orthogonalLoop=1;jettySize=auto;html=1;exitX=0.5;exitY=1;exitDx=0;exitDy=0;entryX=0.5;entryY=0;entryDx=0;entryDy=0;" edge="1" parent="1" source="nsdxGzsHSq47ZVcV8mhm-27" target="nsdxGzsHSq47ZVcV8mhm-29">
          <mxGeometry relative="1" as="geometry" />
        </mxCell>
        <mxCell id="nsdxGzsHSq47ZVcV8mhm-27" value="Ready to dispatch" style="rounded=0;whiteSpace=wrap;html=1;fillColor=#ffe6cc;strokeColor=#d79b00;" vertex="1" parent="1">
          <mxGeometry x="435" y="730" width="200" height="50" as="geometry" />
        </mxCell>
        <mxCell id="nsdxGzsHSq47ZVcV8mhm-33" style="edgeStyle=orthogonalEdgeStyle;rounded=0;orthogonalLoop=1;jettySize=auto;html=1;exitX=0.5;exitY=1;exitDx=0;exitDy=0;entryX=0.5;entryY=0;entryDx=0;entryDy=0;" edge="1" parent="1" source="nsdxGzsHSq47ZVcV8mhm-29" target="nsdxGzsHSq47ZVcV8mhm-30">
          <mxGeometry relative="1" as="geometry" />
        </mxCell>
        <mxCell id="nsdxGzsHSq47ZVcV8mhm-29" value="Preview dispatch details" style="rounded=0;whiteSpace=wrap;html=1;fillColor=#ffe6cc;strokeColor=#d79b00;" vertex="1" parent="1">
          <mxGeometry x="435" y="810" width="200" height="50" as="geometry" />
        </mxCell>
        <mxCell id="nsdxGzsHSq47ZVcV8mhm-34" style="edgeStyle=orthogonalEdgeStyle;rounded=0;orthogonalLoop=1;jettySize=auto;html=1;exitX=0.5;exitY=1;exitDx=0;exitDy=0;" edge="1" parent="1" source="nsdxGzsHSq47ZVcV8mhm-30" target="nsdxGzsHSq47ZVcV8mhm-31">
          <mxGeometry relative="1" as="geometry" />
        </mxCell>
        <mxCell id="nsdxGzsHSq47ZVcV8mhm-30" value="Verify dispatch details&lt;div&gt;(Digital Signature)&lt;/div&gt;&lt;div&gt;(upload photo etc.)&lt;/div&gt;" style="rounded=0;whiteSpace=wrap;html=1;fillColor=#ffe6cc;strokeColor=#d79b00;" vertex="1" parent="1">
          <mxGeometry x="435" y="890" width="200" height="50" as="geometry" />
        </mxCell>
        <mxCell id="nsdxGzsHSq47ZVcV8mhm-37" style="edgeStyle=orthogonalEdgeStyle;rounded=0;orthogonalLoop=1;jettySize=auto;html=1;exitX=0.5;exitY=1;exitDx=0;exitDy=0;entryX=0.25;entryY=0;entryDx=0;entryDy=0;dashed=1;" edge="1" parent="1" source="nsdxGzsHSq47ZVcV8mhm-31" target="nsdxGzsHSq47ZVcV8mhm-35">
          <mxGeometry relative="1" as="geometry" />
        </mxCell>
        <mxCell id="nsdxGzsHSq47ZVcV8mhm-31" value="Dispatch" style="rounded=0;whiteSpace=wrap;html=1;fillColor=#ffe6cc;strokeColor=#d79b00;" vertex="1" parent="1">
          <mxGeometry x="435" y="970" width="200" height="50" as="geometry" />
        </mxCell>
        <mxCell id="nsdxGzsHSq47ZVcV8mhm-41" style="edgeStyle=orthogonalEdgeStyle;rounded=0;orthogonalLoop=1;jettySize=auto;html=1;exitX=0.5;exitY=1;exitDx=0;exitDy=0;entryX=0.5;entryY=0;entryDx=0;entryDy=0;" edge="1" parent="1" source="nsdxGzsHSq47ZVcV8mhm-35" target="nsdxGzsHSq47ZVcV8mhm-38">
          <mxGeometry relative="1" as="geometry" />
        </mxCell>
        <mxCell id="nsdxGzsHSq47ZVcV8mhm-35" value="Receive Delivery" style="rounded=0;whiteSpace=wrap;html=1;fillColor=#fff2cc;strokeColor=#d6b656;" vertex="1" parent="1">
          <mxGeometry x="625" y="1080" width="200" height="50" as="geometry" />
        </mxCell>
        <mxCell id="nsdxGzsHSq47ZVcV8mhm-42" style="edgeStyle=orthogonalEdgeStyle;rounded=0;orthogonalLoop=1;jettySize=auto;html=1;exitX=0.5;exitY=1;exitDx=0;exitDy=0;entryX=0.5;entryY=0;entryDx=0;entryDy=0;" edge="1" parent="1" source="nsdxGzsHSq47ZVcV8mhm-38" target="nsdxGzsHSq47ZVcV8mhm-39">
          <mxGeometry relative="1" as="geometry" />
        </mxCell>
        <mxCell id="nsdxGzsHSq47ZVcV8mhm-38" value="Preview received details" style="rounded=0;whiteSpace=wrap;html=1;fillColor=#fff2cc;strokeColor=#d6b656;" vertex="1" parent="1">
          <mxGeometry x="625" y="1160" width="200" height="50" as="geometry" />
        </mxCell>
        <mxCell id="nsdxGzsHSq47ZVcV8mhm-43" style="edgeStyle=orthogonalEdgeStyle;rounded=0;orthogonalLoop=1;jettySize=auto;html=1;exitX=0.5;exitY=1;exitDx=0;exitDy=0;entryX=0.5;entryY=0;entryDx=0;entryDy=0;" edge="1" parent="1" source="nsdxGzsHSq47ZVcV8mhm-39" target="nsdxGzsHSq47ZVcV8mhm-40">
          <mxGeometry relative="1" as="geometry" />
        </mxCell>
        <mxCell id="nsdxGzsHSq47ZVcV8mhm-39" value="Verify received details&lt;div&gt;(Digital Signature)&lt;/div&gt;&lt;div&gt;&lt;/div&gt;(upload photo etc.)" style="rounded=0;whiteSpace=wrap;html=1;fillColor=#fff2cc;strokeColor=#d6b656;" vertex="1" parent="1">
          <mxGeometry x="625" y="1240" width="200" height="50" as="geometry" />
        </mxCell>
        <mxCell id="nsdxGzsHSq47ZVcV8mhm-56" style="edgeStyle=orthogonalEdgeStyle;rounded=0;orthogonalLoop=1;jettySize=auto;html=1;exitX=0.5;exitY=1;exitDx=0;exitDy=0;entryX=0.5;entryY=0;entryDx=0;entryDy=0;" edge="1" parent="1" source="nsdxGzsHSq47ZVcV8mhm-40" target="nsdxGzsHSq47ZVcV8mhm-47">
          <mxGeometry relative="1" as="geometry" />
        </mxCell>
        <mxCell id="nsdxGzsHSq47ZVcV8mhm-40" value="Receive" style="rounded=0;whiteSpace=wrap;html=1;fillColor=#fff2cc;strokeColor=#d6b656;" vertex="1" parent="1">
          <mxGeometry x="625" y="1320" width="200" height="50" as="geometry" />
        </mxCell>
        <mxCell id="nsdxGzsHSq47ZVcV8mhm-46" style="edgeStyle=orthogonalEdgeStyle;rounded=0;orthogonalLoop=1;jettySize=auto;html=1;exitX=0.5;exitY=1;exitDx=0;exitDy=0;entryX=0.5;entryY=0;entryDx=0;entryDy=0;dashed=1;" edge="1" parent="1" source="nsdxGzsHSq47ZVcV8mhm-47" target="nsdxGzsHSq47ZVcV8mhm-49">
          <mxGeometry relative="1" as="geometry" />
        </mxCell>
        <mxCell id="nsdxGzsHSq47ZVcV8mhm-47" value="Store delivery details into db" style="rounded=0;whiteSpace=wrap;html=1;fillColor=#fff2cc;strokeColor=#d6b656;" vertex="1" parent="1">
          <mxGeometry x="625" y="1390" width="200" height="50" as="geometry" />
        </mxCell>
        <mxCell id="nsdxGzsHSq47ZVcV8mhm-48" style="edgeStyle=orthogonalEdgeStyle;rounded=0;orthogonalLoop=1;jettySize=auto;html=1;exitX=0.5;exitY=1;exitDx=0;exitDy=0;entryX=0.5;entryY=0;entryDx=0;entryDy=0;" edge="1" parent="1" source="nsdxGzsHSq47ZVcV8mhm-49" target="nsdxGzsHSq47ZVcV8mhm-51">
          <mxGeometry relative="1" as="geometry" />
        </mxCell>
        <mxCell id="nsdxGzsHSq47ZVcV8mhm-49" value="Ready to dispatch" style="rounded=0;whiteSpace=wrap;html=1;fillColor=#ffe6cc;strokeColor=#d79b00;" vertex="1" parent="1">
          <mxGeometry x="625" y="1500" width="200" height="50" as="geometry" />
        </mxCell>
        <mxCell id="nsdxGzsHSq47ZVcV8mhm-50" style="edgeStyle=orthogonalEdgeStyle;rounded=0;orthogonalLoop=1;jettySize=auto;html=1;exitX=0.5;exitY=1;exitDx=0;exitDy=0;entryX=0.5;entryY=0;entryDx=0;entryDy=0;" edge="1" parent="1" source="nsdxGzsHSq47ZVcV8mhm-51" target="nsdxGzsHSq47ZVcV8mhm-53">
          <mxGeometry relative="1" as="geometry" />
        </mxCell>
        <mxCell id="nsdxGzsHSq47ZVcV8mhm-51" value="Preview dispatch details" style="rounded=0;whiteSpace=wrap;html=1;fillColor=#ffe6cc;strokeColor=#d79b00;" vertex="1" parent="1">
          <mxGeometry x="625" y="1580" width="200" height="50" as="geometry" />
        </mxCell>
        <mxCell id="nsdxGzsHSq47ZVcV8mhm-52" style="edgeStyle=orthogonalEdgeStyle;rounded=0;orthogonalLoop=1;jettySize=auto;html=1;exitX=0.5;exitY=1;exitDx=0;exitDy=0;" edge="1" parent="1" source="nsdxGzsHSq47ZVcV8mhm-53" target="nsdxGzsHSq47ZVcV8mhm-54">
          <mxGeometry relative="1" as="geometry" />
        </mxCell>
        <mxCell id="nsdxGzsHSq47ZVcV8mhm-53" value="Verify dispatch details&lt;div&gt;(Digital Signature)&lt;/div&gt;&lt;div&gt;&lt;/div&gt;(upload photo etc.)" style="rounded=0;whiteSpace=wrap;html=1;fillColor=#ffe6cc;strokeColor=#d79b00;" vertex="1" parent="1">
          <mxGeometry x="625" y="1660" width="200" height="50" as="geometry" />
        </mxCell>
        <mxCell id="nsdxGzsHSq47ZVcV8mhm-57" style="edgeStyle=orthogonalEdgeStyle;rounded=0;orthogonalLoop=1;jettySize=auto;html=1;exitX=0.5;exitY=1;exitDx=0;exitDy=0;entryX=0.75;entryY=0;entryDx=0;entryDy=0;dashed=1;" edge="1" parent="1" source="nsdxGzsHSq47ZVcV8mhm-54" target="nsdxGzsHSq47ZVcV8mhm-35">
          <mxGeometry relative="1" as="geometry">
            <Array as="points">
              <mxPoint x="725" y="1810" />
              <mxPoint x="870" y="1810" />
              <mxPoint x="870" y="1060" />
              <mxPoint x="775" y="1060" />
            </Array>
          </mxGeometry>
        </mxCell>
        <mxCell id="nsdxGzsHSq47ZVcV8mhm-58" value="Different opereating level" style="edgeLabel;html=1;align=center;verticalAlign=middle;resizable=0;points=[];" vertex="1" connectable="0" parent="nsdxGzsHSq47ZVcV8mhm-57">
          <mxGeometry x="0.069" y="-2" relative="1" as="geometry">
            <mxPoint x="-42" y="46" as="offset" />
          </mxGeometry>
        </mxCell>
        <mxCell id="nsdxGzsHSq47ZVcV8mhm-64" style="edgeStyle=orthogonalEdgeStyle;rounded=0;orthogonalLoop=1;jettySize=auto;html=1;exitX=0.25;exitY=1;exitDx=0;exitDy=0;entryX=0.5;entryY=0;entryDx=0;entryDy=0;" edge="1" parent="1" source="nsdxGzsHSq47ZVcV8mhm-54" target="nsdxGzsHSq47ZVcV8mhm-59">
          <mxGeometry relative="1" as="geometry" />
        </mxCell>
        <mxCell id="nsdxGzsHSq47ZVcV8mhm-54" value="Dispatch" style="rounded=0;whiteSpace=wrap;html=1;fillColor=#ffe6cc;strokeColor=#d79b00;" vertex="1" parent="1">
          <mxGeometry x="625" y="1740" width="200" height="50" as="geometry" />
        </mxCell>
        <mxCell id="nsdxGzsHSq47ZVcV8mhm-65" style="edgeStyle=orthogonalEdgeStyle;rounded=0;orthogonalLoop=1;jettySize=auto;html=1;exitX=0.5;exitY=1;exitDx=0;exitDy=0;entryX=0.5;entryY=0;entryDx=0;entryDy=0;" edge="1" parent="1" source="nsdxGzsHSq47ZVcV8mhm-59" target="nsdxGzsHSq47ZVcV8mhm-60">
          <mxGeometry relative="1" as="geometry" />
        </mxCell>
        <mxCell id="nsdxGzsHSq47ZVcV8mhm-59" value="Receive Delivery" style="rounded=0;whiteSpace=wrap;html=1;fillColor=#fff2cc;strokeColor=#d6b656;" vertex="1" parent="1">
          <mxGeometry x="435" y="1830" width="200" height="50" as="geometry" />
        </mxCell>
        <mxCell id="nsdxGzsHSq47ZVcV8mhm-66" style="edgeStyle=orthogonalEdgeStyle;rounded=0;orthogonalLoop=1;jettySize=auto;html=1;exitX=0.5;exitY=1;exitDx=0;exitDy=0;" edge="1" parent="1" source="nsdxGzsHSq47ZVcV8mhm-60" target="nsdxGzsHSq47ZVcV8mhm-61">
          <mxGeometry relative="1" as="geometry" />
        </mxCell>
        <mxCell id="nsdxGzsHSq47ZVcV8mhm-60" value="Preview received details" style="rounded=0;whiteSpace=wrap;html=1;fillColor=#fff2cc;strokeColor=#d6b656;" vertex="1" parent="1">
          <mxGeometry x="435" y="1910" width="200" height="50" as="geometry" />
        </mxCell>
        <mxCell id="nsdxGzsHSq47ZVcV8mhm-67" style="edgeStyle=orthogonalEdgeStyle;rounded=0;orthogonalLoop=1;jettySize=auto;html=1;exitX=0.5;exitY=1;exitDx=0;exitDy=0;entryX=0.5;entryY=0;entryDx=0;entryDy=0;" edge="1" parent="1" source="nsdxGzsHSq47ZVcV8mhm-61" target="nsdxGzsHSq47ZVcV8mhm-62">
          <mxGeometry relative="1" as="geometry" />
        </mxCell>
        <mxCell id="nsdxGzsHSq47ZVcV8mhm-61" value="Verify received details&lt;div&gt;(Digital Signature)&lt;/div&gt;&lt;div&gt;&lt;/div&gt;(upload photo etc.)" style="rounded=0;whiteSpace=wrap;html=1;fillColor=#fff2cc;strokeColor=#d6b656;" vertex="1" parent="1">
          <mxGeometry x="435" y="1990" width="200" height="50" as="geometry" />
        </mxCell>
        <mxCell id="nsdxGzsHSq47ZVcV8mhm-68" style="edgeStyle=orthogonalEdgeStyle;rounded=0;orthogonalLoop=1;jettySize=auto;html=1;exitX=0.5;exitY=1;exitDx=0;exitDy=0;entryX=0.5;entryY=0;entryDx=0;entryDy=0;" edge="1" parent="1" source="nsdxGzsHSq47ZVcV8mhm-62" target="nsdxGzsHSq47ZVcV8mhm-63">
          <mxGeometry relative="1" as="geometry" />
        </mxCell>
        <mxCell id="nsdxGzsHSq47ZVcV8mhm-62" value="Receive" style="rounded=0;whiteSpace=wrap;html=1;fillColor=#fff2cc;strokeColor=#d6b656;" vertex="1" parent="1">
          <mxGeometry x="435" y="2070" width="200" height="50" as="geometry" />
        </mxCell>
        <mxCell id="nsdxGzsHSq47ZVcV8mhm-73" style="edgeStyle=orthogonalEdgeStyle;rounded=0;orthogonalLoop=1;jettySize=auto;html=1;exitX=0.5;exitY=1;exitDx=0;exitDy=0;entryX=0.25;entryY=0;entryDx=0;entryDy=0;dashed=1;" edge="1" parent="1" source="nsdxGzsHSq47ZVcV8mhm-63" target="nsdxGzsHSq47ZVcV8mhm-69">
          <mxGeometry relative="1" as="geometry" />
        </mxCell>
        <mxCell id="nsdxGzsHSq47ZVcV8mhm-75" value="send website link (email etc.)" style="edgeLabel;html=1;align=center;verticalAlign=middle;resizable=0;points=[];" vertex="1" connectable="0" parent="nsdxGzsHSq47ZVcV8mhm-73">
          <mxGeometry x="0.0743" y="-1" relative="1" as="geometry">
            <mxPoint y="-16" as="offset" />
          </mxGeometry>
        </mxCell>
        <mxCell id="nsdxGzsHSq47ZVcV8mhm-63" value="Store delivery details into db" style="rounded=0;whiteSpace=wrap;html=1;fillColor=#fff2cc;strokeColor=#d6b656;" vertex="1" parent="1">
          <mxGeometry x="435" y="2140" width="200" height="50" as="geometry" />
        </mxCell>
        <mxCell id="nsdxGzsHSq47ZVcV8mhm-72" style="edgeStyle=orthogonalEdgeStyle;rounded=0;orthogonalLoop=1;jettySize=auto;html=1;exitX=0.5;exitY=1;exitDx=0;exitDy=0;" edge="1" parent="1" source="nsdxGzsHSq47ZVcV8mhm-69" target="nsdxGzsHSq47ZVcV8mhm-70">
          <mxGeometry relative="1" as="geometry" />
        </mxCell>
        <mxCell id="nsdxGzsHSq47ZVcV8mhm-69" value="Preview delivery details" style="rounded=0;whiteSpace=wrap;html=1;fillColor=#d5e8d4;strokeColor=#82b366;" vertex="1" parent="1">
          <mxGeometry x="815" y="2240" width="200" height="50" as="geometry" />
        </mxCell>
        <mxCell id="RYp7TIwX1noaBeRX6q_W-2" style="edgeStyle=orthogonalEdgeStyle;rounded=0;orthogonalLoop=1;jettySize=auto;html=1;exitX=0.5;exitY=1;exitDx=0;exitDy=0;" edge="1" parent="1" source="nsdxGzsHSq47ZVcV8mhm-70" target="RYp7TIwX1noaBeRX6q_W-1">
          <mxGeometry relative="1" as="geometry" />
        </mxCell>
        <mxCell id="nsdxGzsHSq47ZVcV8mhm-70" value="Verify delivery details&lt;div&gt;(Digital Signature)&lt;/div&gt;" style="rounded=0;whiteSpace=wrap;html=1;fillColor=#d5e8d4;strokeColor=#82b366;" vertex="1" parent="1">
          <mxGeometry x="815" y="2310" width="200" height="50" as="geometry" />
        </mxCell>
        <mxCell id="nsdxGzsHSq47ZVcV8mhm-76" value="" style="ellipse;whiteSpace=wrap;html=1;" vertex="1" parent="1">
          <mxGeometry x="900" y="2451" width="30" height="30" as="geometry" />
        </mxCell>
        <mxCell id="RYp7TIwX1noaBeRX6q_W-3" style="edgeStyle=orthogonalEdgeStyle;rounded=0;orthogonalLoop=1;jettySize=auto;html=1;exitX=0.5;exitY=1;exitDx=0;exitDy=0;" edge="1" parent="1" source="RYp7TIwX1noaBeRX6q_W-1" target="nsdxGzsHSq47ZVcV8mhm-76">
          <mxGeometry relative="1" as="geometry" />
        </mxCell>
        <mxCell id="RYp7TIwX1noaBeRX6q_W-1" value="Delivered" style="rounded=0;whiteSpace=wrap;html=1;fillColor=#d5e8d4;strokeColor=#82b366;" vertex="1" parent="1">
          <mxGeometry x="815" y="2380" width="200" height="50" as="geometry" />
        </mxCell>
      </root>
    </mxGraphModel>
  </diagram>
</mxfile>
